<?xml version="1.0" encoding="utf-8"?>
<!-- Generator: Adobe Illustrator 19.0.0, SVG Export Plug-In . SVG Version: 6.00 Build 0)  -->
<svg version="1.1" id="Layer_1" xmlns="http://www.w3.org/2000/svg" xmlns:xlink="http://www.w3.org/1999/xlink" x="0px" y="0px"
	 viewBox="-409 210 141 141" style="enable-background:new -409 210 141 141;" xml:space="preserve">
<style type="text/css">
	.st0{fill:#FFFFFF;}
</style>
<g id="vuesax_x2F_bold_x2F_import">
	<g id="import">
		<path id="Vector" class="st0" d="M-286.6,274.1c-5.3-27.1-31.6-44.8-58.7-39.5c-27.1,5.3-44.8,31.6-39.5,58.7
			c5.3,27.1,31.6,44.8,58.7,39.5C-299,327.5-281.3,301.2-286.6,274.1z M-308.4,306.6l-45.3-30.5l-6.3,9.4c0.4,2,0.7,4.6-1.3,5
			c-2,0.4-10.9-6.2-11.3-8.2l9.9-13.7c-0.4-2,0.9-4,3-4.4l10.7-15.1c2-0.4,10.3,6.4,10.7,8.5c0.4,2-2.2,2-4.2,2.4l-6.8,9.8
			l45.3,30.5c0.9,0.6,1.4,1.5,1.6,2.4c0.2,0.9,0,1.9-0.6,2.8C-304.4,307.3-306.7,307.7-308.4,306.6z"/>
	</g>
</g>
</svg>
